<svg width="101" height="33" viewBox="0 0 101 33" fill="none" xmlns="http://www.w3.org/2000/svg">
<path d="M30.1712 9.42188H24.3105V31.4106H30.1712V9.42188Z" fill="white"/>
<path d="M23.6045 3.72248C23.6045 5.68908 25.2349 7.34275 27.2177 7.34275C29.245 7.34275 30.8309 5.68908 30.8309 3.72248C30.8309 1.66685 29.245 0.0131836 27.2177 0.0131836C25.2349 0.0131836 23.6045 1.66685 23.6045 3.72248Z" fill="white"/>
<path d="M45.8463 9.33286C45.3926 9.27904 44.9365 9.2491 44.4798 9.24316C42.6294 9.24316 39.6332 9.7827 38.3114 12.6827V9.42188H32.627V31.408H38.4876V21.3551C38.4876 16.6173 41.0874 15.143 44.0835 15.143C44.6755 15.1424 45.2661 15.2023 45.8463 15.3217V9.33286Z" fill="white"/>
<path d="M77.0999 9.42188H71.2393V31.4106H77.0999V9.42188Z" fill="white"/>
<path d="M63.0454 0.202148V11.612C62.4284 10.4499 60.6657 8.88597 56.9202 8.88597C50.7956 8.88597 46.5215 13.936 46.5215 20.372C46.5215 27.0312 50.9279 31.9477 57.0937 31.9477C60.0021 31.9477 62.2056 30.607 63.1744 28.8636C63.177 29.7175 63.2509 30.5696 63.3952 31.4109H68.9912C68.9027 30.5173 68.815 28.9081 68.815 27.4318V1.10857L63.0454 0.202148ZM57.8019 26.6293C54.7173 26.6293 52.426 24.3052 52.426 20.372C52.426 16.4388 54.8051 14.2044 57.8019 14.2044C60.7987 14.2044 63.1332 16.3943 63.1332 20.3275C63.1325 24.3052 60.7973 26.6293 57.8012 26.6293H57.8019Z" fill="white"/>
<path d="M12.3376 8.84143C9.12072 8.84143 6.74163 10.2712 5.77218 11.8359V0.23584L0 1.13956V31.4142H5.68374V28.7294C6.8294 30.607 9.12072 31.9477 12.1175 31.9477C18.286 31.9477 22.34 26.9867 22.34 20.3275C22.34 13.8025 18.6829 8.84143 12.3376 8.84143ZM11.1035 26.6292C8.15126 26.6292 5.68374 24.3497 5.68374 20.372C5.68374 16.3497 8.15126 14.1599 11.1035 14.1599C14.1003 14.1599 16.4794 16.3497 16.4794 20.372C16.4794 24.3942 14.1003 26.6292 11.1035 26.6292Z" fill="white"/>
<path d="M100.424 20.1589C100.424 13.0977 96.4148 8.76123 89.719 8.76123C84.1669 8.76123 79.0557 13.3203 79.0557 20.337C79.0557 27.7556 84.2992 32.0914 90.2476 32.0914C95.5796 32.0914 99.0166 28.9216 100.118 25.1193L95.2272 23.6429C94.5217 25.6096 93.0237 26.9948 90.2915 26.9948C87.3838 26.9948 84.9602 24.894 84.8278 21.9893H100.338C100.336 21.8996 100.424 21.006 100.424 20.1589ZM84.9582 17.9246C85.0912 15.9128 86.7648 13.5887 89.8048 13.5887C93.154 13.5887 94.5643 15.734 94.6521 17.9246H84.9582Z" fill="white"/>
<path d="M81.8351 3.6719C81.8351 3.6719 76.8429 6.89224 74.5509 7.30229C74.2953 7.34412 74.0356 7.35386 73.7776 7.33129C71.9724 7.15392 70.5361 5.58859 70.5361 3.6719C70.5361 1.7552 71.9724 0.189204 73.7776 0.0118326C74.0356 -0.0107351 74.2953 -0.000995623 74.5509 0.040832C76.8429 0.450878 81.8351 3.6719 81.8351 3.6719Z" fill="#54C5C1"/>
</svg>
