<svg width="80" height="80" viewBox="0 0 80 80" fill="none" xmlns="http://www.w3.org/2000/svg">
<path d="M62.6846 62.0715C75.1814 53.3515 77.7014 35.3747 68.3119 21.92C58.9225 8.46312 41.1814 4.62522 28.6846 13.3431C16.1877 22.0631 -0.650165 50.0315 8.73931 63.4863C18.1288 76.9431 50.1898 70.7915 62.6846 62.0715Z" fill="#54BDB8"/>
<path opacity="0.9" d="M48.5316 26.8969C45.5274 26.8969 42.8347 28.2 40.9632 30.2632C38.8642 27.9495 35.7295 26.5916 32.2832 26.9579C27.5505 27.4611 23.7147 31.3032 23.2242 36.0379C23.201 36.2695 23.1758 36.4968 23.1758 36.7263C23.1758 45.6358 36.4305 57.5053 40.9653 57.5053C45.0684 57.5053 58.7653 45.7116 58.761 37.1284C58.7589 31.48 54.1821 26.9011 48.5337 26.9011L48.5316 26.8969Z" fill="white"/>
</svg>
